PathFileType	4	(X/Y/Z)	C:\Users\chris\Documents\GitHub\baseballds\vids\pitch5_Sports2D\pitch5_Sports2D_m_person00.trc
DataRate	CameraRate	NumFrames	NumMarkers	Units	OrigDataRate	OrigDataStartFrame	OrigNumFrames
30	30	10	22	m	30	0	149
Frame#	Time	Hip			RHip			RKnee			RAnkle			RBigToe			RSmallToe			RHeel			LHip			LKnee			LAnkle			LBigToe			LSmallToe			LHeel			Neck			Head			Nose			RShoulder			RElbow			RWrist			LShoulder			LElbow			LWrist		
		X1	Y1	Z1	X2	Y2	Z2	X3	Y3	Z3	X4	Y4	Z4	X5	Y5	Z5	X6	Y6	Z6	X7	Y7	Z7	X8	Y8	Z8	X9	Y9	Z9	X10	Y10	Z10	X11	Y11	Z11	X12	Y12	Z12	X13	Y13	Z13	X14	Y14	Z14	X15	Y15	Z15	X16	Y16	Z16	X17	Y17	Z17	X18	Y18	Z18	X19	Y19	Z19	X20	Y20	Z20	X21	Y21	Z21	X22	Y22	Z22
0	0.0	1.510193287814353	1.0299487337555184	0.0	1.4004476897349956	0.9828387685765932	0.0	1.4313954650361345	0.5395922856116883	0.0	1.4448263606691272	0.185333125864685	0.0	1.4662609990880875	0.04023720111984124	0.0	1.392359804397715	0.046366970228384936	0.0	1.458817579037737	0.14684179098787645	0.0	1.6201907476497677	0.9925059154323057	0.0	1.6949579238270227	0.5692250689394698	0.0	1.7923632843674127	0.22645334963107291	0.0	1.7302141347866915	0.06425978575181997	0.0	1.808563131203267	0.07535467165347043	0.0	1.8187775306370713	0.17191291197084616	0.0	1.4385890729522308	1.6507812401436974	0.0	1.4756372179617228	1.9296227595963207	0.0	1.5773777324043192	1.767567982907822	0.0	1.2379286513488874	1.5296830631405993	0.0	1.2201040320435543	1.2183510739478156	0.0	1.4270321123934535	1.2496769991672547	0.0	1.6529589418816863	1.57550316809192	0.0	1.7419978671854839	1.2716139697940874	0.0	1.6884962538891684	1.228427509745064	0.0
1	0.03333333333333333	1.5108776411919669	1.0239835578938572	0.0	1.4014409258514144	0.9745798162375819	0.0	1.4361249240126341	0.5412680047413365	0.0	1.4412010539309215	0.18591055827293487	0.0	1.468974826755804	0.039630313890130255	0.0	1.3947837246472146	0.043255287070908956	0.0	1.4556717671228938	0.14119590413402014	0.0	1.6240441041074614	0.9903083922742683	0.0	1.69482577451916	0.5710382307705059	0.0	1.789891249274618	0.22144096045993847	0.0	1.7251661494900432	0.06725533837638233	0.0	1.8048373078619255	0.07444359773981846	0.0	1.8168123225359136	0.1661966124932416	0.0	1.438565199245373	1.6444786456178915	0.0	1.48371817169096	1.9156882246070273	0.0	1.5767675455599295	1.750489017034115	0.0	1.2416244814098922	1.5244666155152065	0.0	1.228931258895199	1.2154404954604667	0.0	1.4295007101460655	1.2544316189702434	0.0	1.6515277075613	1.5721773928250813	0.0	1.7432024482523545	1.2762605805744474	0.0	1.6831226635210992	1.2358109303267206	0.0
2	0.06666666666666667	1.510974577754312	1.0200398124078796	0.0	1.4021920223839468	0.9699712965043542	0.0	1.437632377958404	0.542089123195925	0.0	1.4391817404938199	0.18580863913795095	0.0	1.4690082251959118	0.038565735870977495	0.0	1.3953813668397022	0.04179377753413288	0.0	1.4544032453239062	0.13861676260813677	0.0	1.626316041816985	0.9885808671342103	0.0	1.6953370680129976	0.5720717507439586	0.0	1.7888251250285705	0.21737112944066717	0.0	1.7218249642437182	0.0674378621300646	0.0	1.801626685871371	0.07327192452104564	0.0	1.815269546205077	0.1620671008312211	0.0	1.4427196805589004	1.6387198068515034	0.0	1.4931534342008237	1.9058232187159898	0.0	1.5708536333878942	1.7321944050590021	0.0	1.2464874542450566	1.5221355654731232	0.0	1.2349181381319723	1.2135227198144296	0.0	1.4280587884832467	1.260229474132592	0.0	1.6543686925951613	1.5677740461036762	0.0	1.7437735819938405	1.2715828163470064	0.0	1.6705417167548564	1.239304234229801	0.0
3	0.1	1.5111965245053236	1.017266554173582	0.0	1.4031791353160248	0.9685259079501989	0.0	1.4359449173059293	0.5413519842738977	0.0	1.4390370108052124	0.18516998190100128	0.0	1.4672717450112867	0.03687954548771632	0.0	1.3943612108006855	0.04182009692714666	0.0	1.4551596753755989	0.13927965120269792	0.0	1.626975192714983	0.9859248276285325	0.0	1.697019360720518	0.5705782103695912	0.0	1.7889813222355033	0.21483067699551142	0.0	1.7217392219142662	0.06493940107272982	0.0	1.8006392513473326	0.07168265216844412	0.0	1.81394823128295	0.1599908861192415	0.0	1.450850371464837	1.6339858232064768	0.0	1.5015308490921133	1.8992801584983279	0.0	1.5594614698431977	1.7130744803165503	0.0	1.2520972402097108	1.521720271947911	0.0	1.2369483746569752	1.2128490513780696	0.0	1.4220265165421364	1.2658309256641194	0.0	1.6610174072555977	1.5622838340455165	0.0	1.7436278161469974	1.2607277126568712	0.0	1.6543739191186169	1.2389221198524092	0.0
4	0.13333333333333333	1.51184423319059	1.0138401684129001	0.0	1.4044937459704612	0.966817702797991	0.0	1.4338006460691124	0.5404243081750602	0.0	1.4402341394640685	0.18356996625940739	0.0	1.46561452609459	0.0349184924511859	0.0	1.3930484205487321	0.04188546643117399	0.0	1.4563069813546987	0.13907637483060814	0.0	1.6266864460163086	0.9807757186274946	0.0	1.6989998131589599	0.566625397247955	0.0	1.7892662417966148	0.21237772096805121	0.0	1.7232473273854725	0.06238282526968169	0.0	1.8014635742311003	0.06947984454570039	0.0	1.8132426570655806	0.15788532318504325	0.0	1.4593439057451871	1.6299902702212379	0.0	1.506299202959117	1.8918459317829959	0.0	1.5473473827176656	1.6966171318785566	0.0	1.256627800066804	1.5205071716328635	0.0	1.2354243143027717	1.2136183029575605	0.0	1.412757603307553	1.269390818508994	0.0	1.667346538335566	1.5566500122447635	0.0	1.7431477012113785	1.2536324795788532	0.0	1.6472831043295182	1.2338890571925614	0.0
5	0.16666666666666666	1.5126571476127526	1.0108515734857155	0.0	1.4054087551921117	0.9644044325715534	0.0	1.4333019814124441	0.5411516855829244	0.0	1.4415760550641414	0.18020879717233956	0.0	1.4642419554265824	0.0331636201017853	0.0	1.3918182758135091	0.04071523980230586	0.0	1.4563923548595925	0.1345825372239674	0.0	1.625869174921606	0.9757564340934234	0.0	1.6992916579716018	0.5632123300732128	0.0	1.7894231472580093	0.20885276715467926	0.0	1.7223324719627933	0.06086194745257762	0.0	1.800751291783306	0.06633668721003146	0.0	1.8140300983031847	0.1543908302458591	0.0	1.4649822534618624	1.6257147489211925	0.0	1.5080999279537866	1.8820764442034654	0.0	1.5393429845832203	1.6856251006093155	0.0	1.2594335914153063	1.5182624298553045	0.0	1.2310601993000874	1.2162255998005453	0.0	1.4015299432640385	1.270789990792461	0.0	1.6702720693253263	1.5519888174931915	0.0	1.7419385999515176	1.2528348874265052	0.0	1.6541442154057098	1.2231818086264086	0.0
6	0.2	1.5131469520019154	1.010404713831083	0.0	1.405621089172325	0.9634881971087048	0.0	1.4341232369783194	0.5426540120946591	0.0	1.4415414880218824	0.17591827575091287	0.0	1.4630515783131777	0.0316324822536458	0.0	1.3901687878460924	0.03847668147531063	0.0	1.4557427504313183	0.1284386658099576	0.0	1.6246391799261006	0.9749778510605142	0.0	1.6971488107119521	0.5622468338850988	0.0	1.7895534199419814	0.20620055124628647	0.0	1.718823182464306	0.058270992539093	0.0	1.79761168327964	0.06239817318246146	0.0	1.815625081699312	0.15200982873427088	0.0	1.4672161350086894	1.6205846625354554	0.0	1.5086737842672058	1.8729863917139458	0.0	1.5362977403852465	1.6780906413690537	0.0	1.261085580560194	1.51637396330747	0.0	1.2256281488614147	1.2187655884614317	0.0	1.3909841201082584	1.2711791556790122	0.0	1.670089440393359	1.548231460356246	0.0	1.7379760751435975	1.2510210192202413	0.0	1.6632866026040352	1.2106712888981688	0.0
7	0.23333333333333334	1.5122749578327386	1.01077693936367	0.0	1.4051819969663928	0.9631354228026037	0.0	1.4349789208957016	0.5422515612277804	0.0	1.4400251950934988	0.17269987861781091	0.0	1.462643021267475	0.03043832255433214	0.0	1.3888495377326295	0.03644463332094231	0.0	1.4548003230045314	0.12562856481603615	0.0	1.6228730931420579	0.9762592738377135	0.0	1.6941391183339758	0.5616583061795805	0.0	1.7891085856665911	0.20612843082239382	0.0	1.716537369403794	0.05399059080948551	0.0	1.794873152399406	0.05866283386276451	0.0	1.8163858429423598	0.15275099893892816	0.0	1.4674513768749295	1.615136439042928	0.0	1.5085590938057842	1.8670178076887178	0.0	1.5354198608872633	1.6710339305757202	0.0	1.2609939312450016	1.5145341159861214	0.0	1.2216092692028977	1.2175799064592618	0.0	1.384296832039931	1.2709915571244583	0.0	1.668396101560563	1.5443689800773135	0.0	1.730836222582411	1.2422325116309574	0.0	1.663055496823589	1.2051607701067888	0.0
8	0.26666666666666666	1.5102842667929988	1.0087037462631687	0.0	1.4038428812868857	0.9608611843360232	0.0	1.4350458545307616	0.5387281505906695	0.0	1.4384792987741195	0.17117409332967812	0.0	1.4628300069450129	0.030261362101500263	0.0	1.389171948767364	0.03543427530267436	0.0	1.4533865783209676	0.1262770404933663	0.0	1.6206969622549192	0.9741353240085259	0.0	1.6920479030731082	0.5595741945899373	0.0	1.7877902601106552	0.2072201081423256	0.0	1.7176265864119156	0.05141366395810342	0.0	1.7947559366910852	0.05655268759793054	0.0	1.815950136925208	0.15451609125426582	0.0	1.4664237988024942	1.6102794755530152	0.0	1.507185635614841	1.8638397423581163	0.0	1.535082670595088	1.6666686528844328	0.0	1.2588324021675146	1.5117225306780695	0.0	1.2191728560057369	1.2127819913637032	0.0	1.3810504274747089	1.2691814746585348	0.0	1.665565913721814	1.5406237563090006	0.0	1.7244290829818645	1.2299266366908392	0.0	1.6550277069466626	1.211677776563936	0.0
9	0.3	1.5085908553610918	1.0043382418411118	0.0	1.4016051994120382	0.9571061969642582	0.0	1.4335132234751535	0.5334641899660915	0.0	1.4379364086482265	0.17023423994426418	0.0	1.4622539413827789	0.03053238410198014	0.0	1.3905286633631557	0.03479680292443065	0.0	1.4526263728949207	0.12693078364074226	0.0	1.6188342126090398	0.968484984375583	0.0	1.6906378226907897	0.5577594056659372	0.0	1.7858246462658889	0.20689690986149017	0.0	1.7210521382307358	0.052043841700608925	0.0	1.7973765619499145	0.05694264038426158	0.0	1.814914924356471	0.15410908420955724	0.0	1.4631069182321645	1.6063624354485921	0.0	1.503929652415405	1.861749927465423	0.0	1.535607196406304	1.6675190821264776	0.0	1.2557314315149657	1.5084934032459079	0.0	1.216578176973277	1.208079237270676	0.0	1.3767260008247337	1.265573948025276	0.0	1.6613919861453228	1.5379194684151205	0.0	1.7218606623608752	1.2216794496412016	0.0	1.6408600939093085	1.218344301209617	0.0
